<svg width="22" height="20" viewBox="0 0 22 20" fill="none" xmlns="http://www.w3.org/2000/svg">
<path fill-rule="evenodd" clip-rule="evenodd" d="M11.3417 1.0087C10.8861 1.46432 10.8861 2.203 11.3417 2.65862L17.5168 8.83366H1.66667C1.02232 8.83366 0.5 9.35597 0.5 10.0003C0.5 10.6447 1.02232 11.167 1.66667 11.167H17.5168L11.3417 17.342C10.8861 17.7976 10.8861 18.5364 11.3417 18.9919C11.7973 19.4475 12.536 19.4475 12.9916 18.9919L21.1583 10.8253C21.3771 10.6065 21.5 10.3097 21.5 10.0003C21.5 9.69092 21.3771 9.39412 21.1583 9.17537L12.9916 1.0087C12.536 0.553091 11.7973 0.553091 11.3417 1.0087Z" fill="#040A0A"/>
</svg>
