<svg width="21" height="24" viewBox="0 0 21 24" fill="none" xmlns="http://www.w3.org/2000/svg">
<path d="M4.125 5.33333V16.6667C4.125 18.5336 4.125 19.4669 4.47244 20.18C4.77801 20.8072 5.26559 21.3171 5.86538 21.6367C6.54729 22 7.43979 22 9.225 22H11.775C13.5602 22 14.4528 22 15.1346 21.6367C15.7344 21.3171 16.222 20.8072 16.5276 20.18C16.875 19.4669 16.875 18.5336 16.875 16.6667V5.33333M19 5.33333H2M6.25 5.33333L6.53751 4.43119C6.81621 3.55694 6.95561 3.11982 7.21401 2.79664C7.44223 2.51126 7.73527 2.29036 8.06634 2.1542C8.4413 2 8.88181 2 9.76305 2H11.2369C12.1182 2 12.5587 2 12.9336 2.1542C13.2647 2.29036 13.5578 2.51126 13.786 2.79664C14.0444 3.11982 14.1838 3.55694 14.4624 4.43119L14.75 5.33333" stroke="#E75656" stroke-width="3" stroke-linecap="round" stroke-linejoin="round"/>
</svg>
